<?xml version="1.0" encoding="UTF-8"?>
<svg width="88" height="31" version="1.1" viewBox="0 0 23.283 8.2021" xmlns="http://www.w3.org/2000/svg">
	<g transform="translate(0 -288.8)">
		<rect y="288.8" width="23.283" height="8.2021" rx=".83997" ry=".83997" fill="#202020" style="paint-order:stroke fill markers"/>
		<g fill="#fff" stroke-width=".14012" aria-label="Zumi">
			<path d="m12.36 293.89v0.88122h-3.1089v-0.71428l1.6557-2.1565h-1.5298v-0.8648h2.931v0.72523l-1.6064 2.1292z"/>
			<path d="m15.09 291.99v2.7832h-1.0098v-0.45703q-0.22167 0.5145-0.8648 0.5145-0.39682 0-0.61576-0.21894-0.2162-0.22167-0.2162-0.63217v-1.9896h1.0919v1.7515q0 0.16421 0.04379 0.23262 0.04652 0.0657 0.17789 0.0657 0.13957 0 0.22715-0.0985 0.08757-0.10126 0.08757-0.28188v-1.6694z"/>
			<path d="m19.524 294.77h-1.0591v-1.7405q0-0.17515-0.052-0.24357-0.04926-0.0711-0.17789-0.0711-0.30651 0-0.30651 0.44608v1.6092h-1.0482v-1.7405q0-0.33388-0.25725-0.33388-0.26546 0-0.26546 0.33388v1.7405h-1.0509v-2.7832h0.97974v0.37493q0.26272-0.4324 0.76354-0.4324 0.53913 0 0.7827 0.4324 0.27093-0.4324 0.83196-0.4324 0.2682 0 0.47071 0.11221 0.20525 0.1122 0.29556 0.29009 0.09305 0.17515 0.09305 0.5446z"/>
			<path d="m20.836 290.92v0.8648h-1.0919v-0.8648zm0 1.07v2.7832h-1.0919v-2.7832z"/>
		</g>
		<path d="m7.0276 295.31c-0.042246-0.22345-0.15502-0.34914-0.30794-0.50276-1.1173 0.61449-2.231 0.62148-2.9991-0.0395-0.059354 0.1002-0.1023 0.22101-0.11417 0.32994-0.22729-0.10509-0.36311-0.34914-0.42595-0.56561-0.13686 0.0869-0.21298 0.20844-0.27897 0.34914-0.11941-0.26989-0.018295-0.58306 0.090428-0.79255l-0.056561-0.0142c-0.24789-0.0999-0.34216-0.30899-0.25941-0.56911 0.37707 0.32331 0.82398-0.0489 0.84143-0.37358l0.00737-0.14664-0.091126-0.0102c-0.40151-0.0803-0.72273-0.25453-0.96713-0.58308 0.3666 0.0576 0.58656-0.12289 0.79255-0.37707-0.18854-0.10265-0.55863-0.24893-0.5691-0.47833-4.286e-4 -0.0649 0.051324-0.20355 0.11487-0.3062 0.13686-0.2217 0.42595-0.54815 0.50277-0.56909 0.21856 0.036 0.42945 0.10369 0.65639 0.15921 0.20844-0.0499 0.55514-0.14875 0.67035 0.0287 0.050277 0.18015 0.014036 0.31143-0.019133 0.47832 0.00444 4e-3 0.17527 0.0541 0.24161 0.0699 0.056212-0.2622 0.34286-0.8973 0.67385-0.92174 0.38057 7e-4 0.75066 0.25802 1.2918 0.45389l0.092872-0.0254c0.34251-0.0771 0.72622-0.18015 0.96014 0.1051 0.027863 0.0569 0.034529 0.0922 0.038405 0.20424-0.02636 0.79256-0.55165 1.1312-0.59354 1.9098-8.722e-4 0.0817 0.00129 0.0862 0.051673 0.13408 0.18121 0.17073 0.50277 0.2039 0.79954 0.0834 0.023918-0.01 0.024859-4e-3 0.017667 0.0957-0.082049 0.26779-0.21891 0.37707-0.42246 0.45389 0.36311 0.18748 0.37358 0.54465 0.22485 0.89031-0.12325-0.20391-0.29991-0.3048-0.4888-0.36311 0.031877 0.42246-0.19238 0.80652-0.45039 0.99157-0.00565 0-0.017144-0.0475-0.025381-0.10545zm-1.6689-1.1522c0.14908-0.0503 0.29014-0.0796 0.43992-0.12604 0.0058-5e-3 -0.00216-0.0615-0.01805-0.12464-0.038406-0.15363-0.03303-0.42945 0.010091-0.52721 0.032295-0.0747 0.050626-0.0901 0.078557-0.066 0.06948 0.0604 0.13477 0.29363 0.14664 0.5272l0.00838 0.16201c0.076812 4e-3 0.17073-0.038 0.21333-0.0583 0.074368-0.43992 0.011241-0.82747-0.19936-1.1312-0.012081 0-0.085191 0.0123-0.16235 0.0273-0.07716 0.0151-0.2643 0.0402-0.41548 0.0555-0.37707 0.0387-0.35263 0.031-0.39104 0.1208-0.13163 0.40152-0.1613 0.90428 0.15991 1.1801 0.00901 0 0.067385-0.018 0.12988-0.0398zm-1.0963-0.19308c0.082049-0.29502 0.10684-0.64242 0.064591-0.91824-0.011661-0.0768-0.023288-0.1421-0.025802-0.1449-0.00939-0.0103-0.17352-0.0422-0.21891-0.0429-0.13582 0.0299-0.27059 0.0747-0.39802 0.12988-0.13721 0.32784-0.19203 0.61798-0.1428 0.93919 0.018854 0.0391 0.025941 0.0419 0.11906 0.0506 0.096014 9e-3 0.184 0.0374 0.27512 0.067 0.00172 1e-4 0.00344-0.0325 0.00344-0.0722 4.286e-4 -0.21402 0.046785-0.43643 0.1002-0.48182 0.028735-0.0249 0.070527-8.6e-4 0.098458 0.0551 0.0346 0.0705 0.053069 0.19936 0.053419 0.37009 1.073e-4 0.22345 0.020599 0.23672 0.073321 0.0478z" fill="#f60" stroke-width=".013547"/>
	</g>
</svg>
